:FULLY-SPECIFIED
:FORCE-ALL-JOINTS-BE-3DOF
:DEGREES
102
root -2.86168 16.5075 -36.2275 2.19859 0.103314 -2.234
lfemur -20.1287 5.82149 -8.99572
ltibia 43.9866 0 0
lfoot -21.207 -0.150627 -0.00113806
ltoes -7.47081 0 0
rfemur -20.8022 -5.48463 13.864
rtibia 46.9345 0 0
rfoot -25.2548 1.44323 -0.000335305
rtoes -6.21571 0 0
lowerback 9.41374 2.01387 -1.55285
upperback -3.14538 2.5995 1.21598
thorax -8.76293 1.38682 1.72559
lowerneck -2.5832 -3.84591 -6.65815
upperneck 4.82113 -5.1571 6.01221
head 2.3819 -2.55148 2.98694
lclavicle -1.16736e-15 -2.57236e-15 -1.44994e-32
lhumerus -26.5829 -4.35446 89.6084
lradius 25.0247 0 0
lwrist -30.4307 0 0
lhand -28.8003 30.1419 0.000127984
lfingers 7.12502 0 0
lthumb -2.15889 60.1107 0.000124676
rclavicle -1.16736e-15 -2.57236e-15 -1.44994e-32
rhumerus -32.4228 3.2185 -80.4776
rradius 30.7017 0 0
rwrist 2.51709 0 0
rhand -20.2485 -26.8985 -0.000122327
rfingers 7.12502 0 0
rthumb 6.09992 -56.7907 -0.00011962
103
root -2.85965 16.5059 -36.2252 2.20795 0.100992 -2.2397
lfemur -20.1334 5.80619 -8.99125
ltibia 43.9801 0 0
lfoot -21.2057 -0.123246 -0.000759155
ltoes -7.52049 0 0
rfemur -20.8084 -5.48444 13.869
rtibia 46.9258 0 0
rfoot -25.2515 1.45214 -0.000257229
rtoes -6.22824 0 0
lowerback 9.40268 2.01481 -1.55933
upperback -3.14976 2.60019 1.21728
thorax -8.76161 1.3876 1.73073
lowerneck -2.59167 -3.84549 -6.65759
upperneck 4.83214 -5.1567 6.01584
head 2.38726 -2.55106 2.98802
lclavicle -1.11551e-15 -2.35279e-15 -1.27826e-32
lhumerus -26.5819 -4.34614 89.6074
lradius 25.0271 0 0
lwrist -30.4315 0 0
lhand -28.7969 30.1436 0.000142531
lfingers 7.12502 0 0
lthumb -2.15561 60.1124 0.000138826
rclavicle -1.11551e-15 -2.35279e-15 -1.27826e-32
rhumerus -32.4248 3.20657 -80.4764
rradius 30.6971 0 0
rwrist 2.52308 0 0
rhand -20.255 -26.9013 -0.000167806
rfingers 7.12502 0 0
rthumb 6.09365 -56.7936 -0.000158419
104
root -2.85761 16.5042 -36.223 2.21984 0.0992704 -2.24621
lfemur -20.1419 5.7908 -8.98649
ltibia 43.9763 0 0
lfoot -21.2061 -0.0947822 -0.000384313
ltoes -7.57316 0 0
rfemur -20.8175 -5.48564 13.8745
rtibia 46.9184 0 0
rfoot -25.2495 1.4616 -0.000181488
rtoes -6.24266 0 0
lowerback 9.38788 2.01564 -1.56637
upperback -3.15541 2.60073 1.21868
thorax -8.75952 1.38836 1.73639
lowerneck -2.60028 -3.84513 -6.65687
upperneck 4.84535 -5.15646 6.01962
head 2.39341 -2.55072 2.98911
lclavicle -1.06242e-15 -2.09398e-15 -1.09753e-32
lhumerus -26.5808 -4.33591 89.6057
lradius 25.0292 0 0
lwrist -30.4327 0 0
lhand -28.7929 30.146 0.000158739
lfingers 7.12502 0 0
lthumb -2.15171 60.1148 0.000154591
rclavicle -1.06242e-15 -2.09398e-15 -1.09753e-32
rhumerus -32.4272 3.19321 -80.4751
rradius 30.6922 0 0
rwrist 2.52947 0 0
rhand -20.2607 -26.9048 -0.000216073
rfingers 7.12502 0 0
rthumb 6.0881 -56.7972 -0.000199816
105
root -2.85558 16.5026 -36.2207 2.23461 0.0983073 -2.25359
lfemur -20.1548 5.77555 -8.98147
ltibia 43.9759 0 0
lfoot -21.2086 -0.0654502 -1.87833e-05
ltoes -7.62862 0 0
rfemur -20.8298 -5.48852 13.8804
rtibia 46.9129 0 0
rfoot -25.249 1.47158 -0.000109379
rtoes -6.25918 0 0
lowerback 9.36875 2.01633 -1.57398
upperback -3.16252 2.60108 1.22017
thorax -8.75651 1.38908 1.74262
lowerneck -2.60892 -3.84485 -6.65598
upperneck 4.86105 -5.15643 6.02351
head 2.40041 -2.55047 2.9902
lclavicle -1.00866e-15 -1.79152e-15 -9.06787e-33
lhumerus -26.5797 -4.32352 89.603
lradius 25.0311 0 0
lwrist -30.4347 0 0
lhand -28.7882 30.1491 0.000176614
lfingers 7.12502 0 0
lthumb -2.14712 60.118 0.00017198
rclavicle -1.00866e-15 -1.79152e-15 -9.06787e-33
rhumerus -32.4302 3.1783 -80.4736
rradius 30.6869 0 0
rwrist 2.53626 0 0
rhand -20.2655 -26.909 -0.000266924
rfingers 7.12502 0 0
rthumb 6.0835 -56.8015 -0.00024367
106
root -2.85355 16.501 -36.2184 2.25261 0.0982604 -2.26192
lfemur -20.1728 5.76065 -8.97618
ltibia 43.9793 0 0
lfoot -21.2137 -0.0354665 0.000332643
ltoes -7.68668 0 0
rfemur -20.846 -5.49336 13.8868
rtibia 46.9097 0 0
rfoot -25.2503 1.48206 -4.20579e-05
rtoes -6.27796 0 0
lowerback 9.34474 2.01686 -1.58218
upperback -3.17127 2.60121 1.22175
thorax -8.75245 1.38974 1.74943
lowerneck -2.6175 -3.84465 -6.65489
upperneck 4.87948 -5.15664 6.02749
head 2.40833 -2.55035 2.99129
lclavicle -9.548e-16 -1.44104e-15 -7.04653e-33
lhumerus -26.5786 -4.30874 89.5991
lradius 25.0326 0 0
lwrist -30.4374 0 0
lhand -28.7826 30.1532 0.000196108
lfingers 7.12502 0 0
lthumb -2.14177 60.1222 0.000190943
rclavicle -9.548e-16 -1.44104e-15 -7.04653e-33
rhumerus -32.4338 3.16176 -80.472
rradius 30.6811 0 0
rwrist 2.54341 0 0
rhand -20.269 -26.9142 -0.000320101
rfingers 7.12502 0 0
rthumb 6.0801 -56.8068 -0.000289784
107
root -2.85152 16.4994 -36.2161 2.27421 0.0992878 -2.27128
lfemur -20.1965 5.74634 -8.97065
ltibia 43.9873 0 0
lfoot -21.2216 -0.00504734 0.000665619
ltoes -7.74716 0 0
rfemur -20.8664 -5.50045 13.8936
rtibia 46.9091 0 0
rfoot -25.2537 1.493 1.94705e-05
rtoes -6.2992 0 0
lowerback 9.31525 2.01718 -1.59097
upperback -3.18186 2.60107 1.22341
thorax -8.7472 1.39033 1.75684
lowerneck -2.62591 -3.84457 -6.65358
upperneck 4.90093 -5.15714 6.03153
head 2.41724 -2.55037 2.99235
lclavicle -9.01409e-16 -1.03813e-15 -4.89552e-33
lhumerus -26.5775 -4.2913 89.594
lradius 25.0337 0 0
lwrist -30.441 0 0
lhand -28.7762 30.1583 0.000217105
lfingers 7.12502 0 0
lthumb -2.1356 60.1273 0.00021137
rclavicle -9.01409e-16 -1.03813e-15 -4.89552e-33
rhumerus -32.4381 3.14347 -80.4701
rradius 30.675 0 0
rwrist 2.55092 0 0
rhand -20.271 -26.9204 -0.000375258
rfingers 7.12502 0 0
rthumb 6.07814 -56.8129 -0.000337878
108
root -2.84949 16.4978 -36.2139 2.29975 0.101548 -2.28172
lfemur -20.2266 5.73283 -8.96489
ltibia 44.0006 0 0
lfoot -21.2328 0.0255912 0.000976209
ltoes -7.80987 0 0
rfemur -20.8915 -5.51006 13.901
rtibia 46.9117 0 0
rfoot -25.2594 1.50438 7.43592e-05
rtoes -6.32307 0 0
lowerback 9.27972 2.01725 -1.60035
upperback -3.19447 2.60061 1.22516
thorax -8.74063 1.39083 1.76489
lowerneck -2.63403 -3.84461 -6.65203
upperneck 4.92565 -5.15796 6.03559
head 2.42723 -2.55055 2.99337
lclavicle -8.49062e-16 -5.78408e-16 -2.59973e-33
lhumerus -26.5763 -4.27097 89.5874
lradius 25.0343 0 0
lwrist -30.4456 0 0
lhand -28.7689 30.1646 0.000239409
lfingers 7.12502 0 0
lthumb -2.12852 60.1336 0.000233068
rclavicle -8.49062e-16 -5.78408e-16 -2.59973e-33
rhumerus -32.443 3.12335 -80.468
rradius 30.6685 0 0
rwrist 2.55878 0 0
rhand -20.2713 -26.9276 -0.000431933
rfingers 7.12502 0 0
rthumb 6.07786 -56.8201 -0.000387563
109
root -2.84746 16.4962 -36.2116 2.32959 0.105201 -2.29332
lfemur -20.2638 5.72036 -8.95891
ltibia 44.0197 0 0
lfoot -21.2477 0.056233 0.00126084
ltoes -7.87462 0 0
rfemur -20.9218 -5.52248 13.9089
rtibia 46.9179 0 0
rfoot -25.2679 1.51617 0.000121925
rtoes -6.34977 0 0
lowerback 9.23757 2.01705 -1.61035
upperback -3.20928 2.59981 1.22699
thorax -8.7326 1.39123 1.7736
lowerneck -2.64177 -3.8448 -6.65021
upperneck 4.95392 -5.15914 6.03966
head 2.43834 -2.55092 2.99434
lclavicle -7.98328e-16 -5.74727e-17 -1.47694e-34
lhumerus -26.5751 -4.24748 89.5793
lradius 25.0343 0 0
lwrist -30.4512 0 0
lhand -28.7606 30.172 0.000262727
lfingers 7.12502 0 0
lthumb -2.12046 60.1412 0.000255753
rclavicle -7.98328e-16 -5.74727e-17 -1.47694e-34
rhumerus -32.4488 3.10129 -80.4657
rradius 30.6616 0 0
rwrist 2.56697 0 0
rhand -20.2696 -26.9359 -0.000489511
rfingers 7.12502 0 0
rthumb 6.07951 -56.8283 -0.000438306
110
root -2.84543 16.4946 -36.2093 2.3641 0.110404 -2.30615
lfemur -20.3087 5.70915 -8.95271
ltibia 44.0453 0 0
lfoot -21.2665 0.0866618 0.00151624
ltoes -7.94122 0 0
rfemur -20.9577 -5.53799 13.9173
rtibia 46.928 0 0
rfoot -25.2792 1.52833 0.000161651
rtoes -6.37947 0 0
lowerback 9.18821 2.01652 -1.62097
upperback -3.22648 2.59863 1.2289
thorax -8.72298 1.3915 1.783
lowerneck -2.64902 -3.84515 -6.64811
upperneck 4.98601 -5.16072 6.0437
head 2.45067 -2.5515 2.99524
lclavicle -7.4978e-16 5.29067e-16 2.46496e-33
lhumerus -26.574 -4.2206 89.5695
lradius 25.0336 0 0
lwrist -30.458 0 0
lhand -28.7511 30.1809 0.000286651
lfingers 7.12502 0 0
lthumb -2.11136 60.1501 0.000279027
rclavicle -7.4978e-16 5.29067e-16 2.46496e-33
rhumerus -32.4553 3.0772 -80.4632
rradius 30.6543 0 0
rwrist 2.57547 0 0
rhand -20.2657 -26.9456 -0.000547183
rfingers 7.12502 0 0
rthumb 6.08332 -56.8378 -0.000489394
111
root -2.8434 16.493 -36.2071 2.40362 0.11732 -2.32029
lfemur -20.362 5.69942 -8.94633
ltibia 44.078 0 0
lfoot -21.2898 0.116662 0.00173937
ltoes -8.00948 0 0
rfemur -20.9998 -5.55687 13.9263
rtibia 46.9425 0 0
rfoot -25.2939 1.54084 0.000193192
rtoes -6.41235 0 0
lowerback 9.13109 2.01564 -1.63222
upperback -3.24626 2.59701 1.23089
thorax -8.71163 1.39162 1.79311
lowerneck -2.65568 -3.84569 -6.6457
upperneck 5.02219 -5.16275 6.04768
head 2.46428 -2.55231 2.99606
lclavicle -7.0399e-16 1.18561e-15 5.23162e-33
lhumerus -26.5728 -4.19006 89.5577
lradius 25.0323 0 0
lwrist -30.4661 0 0
lhand -28.7406 30.1912 0.000310642
lfingers 7.12502 0 0
lthumb -2.10114 60.1605 0.000302365
rclavicle -7.0399e-16 1.18561e-15 5.23162e-33
rhumerus -32.4628 3.05096 -80.4604
rradius 30.6465 0 0
rwrist 2.58428 0 0
rhand -20.2592 -26.9566 -0.000603907
rfingers 7.12502 0 0
rthumb 6.08954 -56.8486 -0.000539893
112
root -2.84137 16.4914 -36.2048 2.44851 0.126107 -2.33578
lfemur -20.4244 5.69139 -8.93976
ltibia 44.1185 0 0
lfoot -21.3178 0.146016 0.00192731
ltoes -8.07922 0 0
rfemur -21.0484 -5.5794 13.9359
rtibia 46.9618 0 0
rfoot -25.3121 1.55367 0.000216375
rtoes -6.44861 0 0
lowerback 9.06562 2.01436 -1.64411
upperback -3.2688 2.59492 1.23296
thorax -8.69841 1.39159 1.80395
lowerneck -2.66163 -3.84642 -6.64296
upperneck 5.06271 -5.16526 6.05158
head 2.47924 -2.55338 2.99679
lclavicle -6.61528e-16 1.91653e-15 8.13037e-33
lhumerus -26.5717 -4.15563 89.544
lradius 25.0301 0 0
lwrist -30.4756 0 0
lhand -28.7287 30.2031 0.000334006
lfingers 7.12502 0 0
lthumb -2.08974 60.1725 0.000325094
rclavicle -6.61528e-16 1.91653e-15 8.13037e-33
rhumerus -32.4713 3.02249 -80.4574
rradius 30.6384 0 0
rwrist 2.59337 0 0
rhand -20.25 -26.969 -0.000658354
rfingers 7.12502 0 0
rthumb 6.09841 -56.8607 -0.000588608
113
root -2.83934 16.4898 -36.2025 2.49914 0.136927 -2.35272
lfemur -20.4966 5.68531 -8.93303
ltibia 44.1674 0 0
lfoot -21.3509 0.174509 0.0020772
ltoes -8.15025 0 0
rfemur -21.1042 -5.60586 13.946
rtibia 46.9864 0 0
rfoot -25.3341 1.56679 0.000231197
rtoes -6.48842 0 0
lowerback 8.99123 2.01265 -1.65664
upperback -3.2943 2.59232 1.23511
thorax -8.6832 1.39139 1.81556
lowerneck -2.66677 -3.84737 -6.63987
upperneck 5.10786 -5.1683 6.05536
head 2.49563 -2.55472 2.99741
lclavicle -6.22967e-16 2.72625e-15 1.11192e-32
lhumerus -26.5706 -4.11705 89.528
lradius 25.027 0 0
lwrist -30.4865 0 0
lhand -28.7156 30.2166 0.000355877
lfingers 7.12502 0 0
lthumb -2.07707 60.1862 0.000346369
rclavicle -6.22967e-16 2.72625e-15 1.11192e-32
rhumerus -32.4807 2.99169 -80.4541
rradius 30.6298 0 0
rwrist 2.60273 0 0
rhand -20.2378 -26.983 -0.000708856
rfingers 7.12502 0 0
rthumb 6.11017 -56.8743 -0.000634029
114
root -2.83731 16.4882 -36.2002 2.55585 0.149943 -2.37115
lfemur -20.5792 5.68138 -8.92614
ltibia 44.2254 0 0
lfoot -21.3896 0.201925 0.00218608
ltoes -8.22238 0 0
rfemur -21.1675 -5.63654 13.9567
rtibia 47.0167 0 0
rfoot -25.3603 1.58016 0.000237824
rtoes -6.53196 0 0
lowerback 8.90733 2.01047 -1.66983
upperback -3.32292 2.58917 1.23732
thorax -8.66585 1.39099 1.82795
lowerneck -2.67101 -3.84856 -6.63641
upperneck 5.1579 -5.17189 6.059
head 2.51351 -2.55635 2.99791
lclavicle -5.88877e-16 3.61914e-15 1.41308e-32
lhumerus -26.5696 -4.07407 89.5098
lradius 25.0229 0 0
lwrist -30.499 0 0
lhand -28.7011 30.232 0.000375193
lfingers 7.12502 0 0
lthumb -2.06307 60.2017 0.000365156
rclavicle -5.88877e-16 3.61914e-15 1.41308e-32
rhumerus -32.4913 2.95844 -80.4505
rradius 30.6208 0 0
rwrist 2.61236 0 0
rhand -20.2224 -26.9986 -0.000753355
rfingers 7.12502 0 0
rthumb 6.12507 -56.8895 -0.000674286
